<svg id="camera" viewBox="0 0 328 256" fill="none" xmlns="http://www.w3.org/2000/svg">
    <path d="M164.175 83.2554C139.072 83.2554 118.08 100.919 118.08 123.444C118.08 145.97 139.072 163.633 164.175 163.633C189.279 163.633 210.269 145.97 210.269 123.444C210.269 100.919 189.279 83.2554 164.175 83.2554ZM101.283 123.444C101.283 93.9318 129.087 69.4109 164.175 69.4109C199.264 69.4109 227.067 93.9318 227.067 123.444C227.067 152.958 199.264 177.478 164.175 177.478C129.087 177.478 101.283 152.958 101.283 123.444Z" fill="#FFE500" stroke="black" stroke-width="10"/>
    <path d="M236.902 3.4554H236.904L251.364 3.45559C256.356 3.45559 259.763 6.88413 259.763 10.3778C259.763 13.8715 256.356 17.3 251.364 17.3H237.66C233.888 17.3 230.991 17.5489 228.299 18.5127C225.59 19.4829 223.306 21.0991 220.612 23.4282C219.493 24.3957 218.389 25.363 217.294 26.3227C205.831 36.3641 195.313 45.5781 178.637 45.5671H178.635L44.2906 45.5667C39.7129 45.5667 35.8979 45.7637 32.7725 46.3486C29.6377 46.9352 27.0034 47.946 24.9548 49.7171C20.8192 53.2925 19.9933 59.1483 19.9933 66.9111V179.978C19.9933 187.741 20.8192 193.597 24.9548 197.172C27.0035 198.943 29.6377 199.954 32.7725 200.54C35.898 201.125 39.7129 201.322 44.2906 201.322H284.06C288.638 201.322 292.453 201.125 295.578 200.54C298.713 199.954 301.347 198.943 303.396 197.172C307.532 193.597 308.357 187.741 308.357 179.978V66.9111C308.357 59.1483 307.532 53.2925 303.396 49.7171C301.347 47.946 298.713 46.9352 295.578 46.3486C292.453 45.7637 288.638 45.5667 284.06 45.5667H273.161C268.17 45.5667 264.763 42.1381 264.763 38.6445C264.763 35.1508 268.17 31.7222 273.161 31.7222H284.409C298.592 31.7221 308.705 34.7556 315.256 40.4189C321.735 46.0206 325.154 54.5709 325.154 66.6098V180.279C325.154 192.318 321.735 200.868 315.256 206.47C308.705 212.133 298.592 215.167 284.409 215.167H43.942C29.7586 215.167 19.6452 212.133 13.0947 206.47C6.61529 200.868 3.19612 192.318 3.19612 180.279V66.6098C3.19612 54.5709 6.61534 46.0207 13.0948 40.419C19.6453 34.7557 29.7587 31.7221 43.942 31.7222H177.878C181.479 31.7222 184.382 31.4451 187.115 30.4799C189.866 29.5087 192.246 27.9123 194.927 25.5941L194.927 25.594L209.004 13.4228L209.024 13.4051L209.044 13.387C216.672 6.49795 225.497 3.44765 236.902 3.4554Z" fill="#3F3F3F" stroke="black" stroke-width="7"/>
    <path d="M101.283 245.933C101.283 242.44 104.69 239.011 109.682 239.011H218.668C223.659 239.011 227.067 242.44 227.067 245.933C227.067 249.426 223.659 252.856 218.668 252.856H109.682C104.69 252.856 101.283 249.427 101.283 245.933Z" fill="#3F3F3F" stroke="black" stroke-width="7"/>
    </svg>