<svg id="logo" viewBox="0 0 748 279" fill="none" xmlns="http://www.w3.org/2000/svg">
  <path d="M49.8001 193.4C42.8667 193.4 37.5334 191.8 33.8001 188.6C30.2001 185.4 28.4001 181.8 28.4001 177.8C28.4001 174.333 29.6667 171.333 32.2001 168.8C34.7334 166.267 38.4667 165 43.4001 165C45.1334 165 47.1334 165.2 49.4001 165.6C51.8001 165.867 53.6001 166.067 54.8001 166.2C54.6667 162.733 53.8667 159.467 52.4001 156.4C51.0667 153.333 49.3334 150.4 47.2001 147.6C45.0667 144.667 43.0667 142.133 41.2001 140C37.0667 147.867 32.9334 154.4 28.8001 159.6C24.8001 164.8 20.4 169.733 15.6 174.4C13.2 176.8 10.6667 178 8.00005 178C5.86672 178 4.13338 177.267 2.80005 175.8C1.46672 174.2 0.800049 172.267 0.800049 170C0.800049 167.333 1.73338 164.867 3.60005 162.6L6.20005 159.4C13.5334 150.333 19.0667 142.867 22.8001 137C25.0667 133.133 27.7334 128 30.8001 121.6C33.8667 115.067 36.8667 108.333 39.8001 101.4C42.3334 95.5333 47.6001 92.6 55.6001 92.6C59.3334 92.6 61.9334 92.9333 63.4001 93.6C64.8667 94.2667 65.6001 95.3333 65.6001 96.8C65.6001 97.6 65.3334 98.8667 64.8 100.6C64.2667 102.333 63.5334 104.067 62.6 105.8C60.2 110.6 59 114.667 59 118C59 120 59.6667 122.2 61.0001 124.6C62.4667 127 64.6667 130 67.6001 133.6C71.8667 139.2 75.0667 144 77.2001 148C79.4667 151.867 80.6001 156.133 80.6001 160.8C80.6001 162.133 80.4667 164 80.2001 166.4C86.7334 163.867 94.4001 157.133 103.2 146.2C104.8 144.333 106.6 143.4 108.6 143.4C110.333 143.4 111.667 144.2 112.6 145.8C113.667 147.4 114.2 149.6 114.2 152.4C114.2 157.467 112.933 161.6 110.4 164.8C103.733 173.067 97.3334 178.733 91.2001 181.8C85.2001 184.733 77.7334 186.333 68.8 186.6C63.4667 191.133 57.1334 193.4 49.8001 193.4Z" stroke="black" stroke-width="5" mask="url(#path-1-inside-1)"/>
    <path d="M148.552 189C140.285 189 133.685 186 128.752 180C123.818 174 121.352 166.133 121.352 156.4C121.352 145.733 123.818 135.667 128.752 126.2C133.685 116.6 140.218 108.933 148.352 103.2C156.618 97.3333 165.352 94.4 174.552 94.4C177.485 94.4 179.418 95 180.352 96.2C181.418 97.2667 182.285 99.2667 182.952 102.2C185.752 101.667 188.685 101.4 191.752 101.4C198.285 101.4 201.552 103.733 201.552 108.4C201.552 111.2 200.552 117.867 198.552 128.4C195.485 143.733 193.952 154.4 193.952 160.4C193.952 162.4 194.418 164 195.352 165.2C196.418 166.4 197.752 167 199.352 167C201.885 167 204.952 165.4 208.552 162.2C212.152 158.867 217.018 153.533 223.152 146.2C224.752 144.333 226.552 143.4 228.552 143.4C230.285 143.4 231.618 144.2 232.552 145.8C233.618 147.4 234.152 149.6 234.152 152.4C234.152 157.733 232.885 161.867 230.352 164.8C224.885 171.6 219.085 177.333 212.952 182C206.818 186.667 200.885 189 195.152 189C190.752 189 186.685 187.533 182.952 184.6C179.352 181.533 176.618 177.4 174.752 172.2C167.818 183.4 159.085 189 148.552 189ZM155.752 168.8C158.685 168.8 161.485 167.067 164.152 163.6C166.818 160.133 168.752 155.533 169.952 149.8L177.352 113C171.752 113.133 166.552 115.267 161.752 119.4C157.085 123.4 153.352 128.733 150.552 135.4C147.752 142.067 146.352 149.133 146.352 156.6C146.352 160.733 147.152 163.8 148.752 165.8C150.485 167.8 152.818 168.8 155.752 168.8Z" stroke="black" stroke-width="5" mask="url(#path-1-inside-1)"/>
    <path d="M258.097 189C253.03 189 249.43 186.333 247.297 181C245.297 175.667 244.297 167.133 244.297 155.4C244.297 138.067 246.764 121.6 251.697 106C252.897 102.133 254.83 99.3333 257.497 97.6C260.297 95.7333 264.164 94.8 269.097 94.8C271.764 94.8 273.63 95.1333 274.697 95.8C275.764 96.4667 276.297 97.7333 276.297 99.6C276.297 101.733 275.297 106.533 273.297 114C271.964 119.333 270.897 124 270.097 128C269.297 131.867 268.63 136.733 268.097 142.6C271.697 132.2 275.964 123.4 280.897 116.2C285.964 109 291.097 103.667 296.297 100.2C301.63 96.6 306.63 94.8 311.297 94.8C315.964 94.8 319.23 95.8667 321.097 98C323.097 100.133 324.097 103.4 324.097 107.8C324.097 112.067 322.83 119.8 320.297 131C319.23 135.8 318.497 139.4 318.097 141.8C324.764 125.4 332.164 113.467 340.297 106C348.43 98.5333 356.03 94.8 363.097 94.8C371.764 94.8 376.097 99.1333 376.097 107.8C376.097 113 374.63 122.4 371.697 136C369.164 147.6 367.897 155.267 367.897 159C367.897 164.333 369.83 167 373.697 167C376.364 167 379.497 165.4 383.097 162.2C386.83 158.867 391.764 153.533 397.897 146.2C399.497 144.333 401.297 143.4 403.297 143.4C405.03 143.4 406.364 144.2 407.297 145.8C408.364 147.4 408.897 149.6 408.897 152.4C408.897 157.733 407.63 161.867 405.097 164.8C399.364 171.867 393.164 177.667 386.497 182.2C379.964 186.733 372.497 189 364.097 189C357.297 189 352.164 187.067 348.697 183.2C345.23 179.2 343.497 173.467 343.497 166C343.497 162.267 344.43 155.6 346.297 146C348.03 137.6 348.897 131.8 348.897 128.6C348.897 126.467 348.164 125.4 346.697 125.4C344.964 125.4 342.497 127.667 339.297 132.2C336.097 136.6 332.897 142.467 329.697 149.8C326.497 157.133 323.897 164.867 321.897 173C320.43 179.4 318.697 183.667 316.697 185.8C314.83 187.933 311.764 189 307.497 189C303.097 189 299.764 186.933 297.497 182.8C295.364 178.533 294.297 173.4 294.297 167.4C294.297 162.333 294.964 155 296.297 145.4C297.364 136.867 297.897 131.267 297.897 128.6C297.897 126.467 297.164 125.4 295.697 125.4C293.697 125.4 291.164 127.8 288.097 132.6C285.03 137.4 282.03 143.533 279.097 151C276.297 158.467 274.03 165.8 272.297 173C270.83 179.267 269.097 183.533 267.097 185.8C265.23 187.933 262.23 189 258.097 189Z" stroke="black" stroke-width="5" mask="url(#path-1-inside-1)"/>
    <path d="M534.325 143.4C536.058 143.4 537.392 144.2 538.325 145.8C539.392 147.4 539.925 149.6 539.925 152.4C539.925 157.733 538.658 161.867 536.125 164.8C530.125 172.133 524.058 178 517.925 182.4C511.792 186.8 504.525 189 496.125 189C485.858 189 477.592 186.067 471.325 180.2C465.058 174.333 461.925 166.533 461.925 156.8C461.925 151.6 464.592 147.867 469.925 145.6C475.792 143.067 479.992 140.4 482.525 137.6C485.058 134.667 486.325 131.133 486.325 127C486.325 124.6 485.792 122.8 484.725 121.6C483.792 120.4 482.592 119.8 481.125 119.8C477.525 119.8 473.525 122.4 469.125 127.6C464.858 132.8 460.858 139.533 457.125 147.8C453.392 155.933 450.458 164.333 448.325 173C446.858 179.267 445.125 183.533 443.125 185.8C441.258 187.933 438.258 189 434.125 189C429.992 189 426.925 187.533 424.925 184.6C423.058 181.533 421.792 176.867 421.125 170.6C420.458 164.333 420.125 155.133 420.125 143C420.125 122.467 422.192 101.067 426.325 78.8C430.592 56.5333 436.792 37.8667 444.925 22.8C453.192 7.60001 463.058 0 474.525 0C480.658 0 485.592 2.66667 489.325 8.00001C493.192 13.2 495.125 20 495.125 28.4C495.125 41.8667 491.192 55.8667 483.325 70.4C475.458 84.8 462.658 101.667 444.925 121C444.525 127.933 444.325 135.067 444.325 142.4C450.725 125.733 458.058 113.667 466.325 106.2C474.592 98.6 482.325 94.8 489.525 94.8C496.192 94.8 501.525 97.0667 505.525 101.6C509.658 106.133 511.725 111.733 511.725 118.4C511.725 125.733 509.858 132.467 506.125 138.6C502.392 144.733 495.992 150.2 486.925 155C487.458 158.6 489.058 161.533 491.725 163.8C494.525 165.933 497.858 167 501.725 167C505.858 167 509.858 165.4 513.725 162.2C517.592 159 522.658 153.667 528.925 146.2C530.525 144.333 532.325 143.4 534.325 143.4ZM470.325 19.8C467.925 19.8 465.258 23.2667 462.325 30.2C459.392 37 456.525 46.2667 453.725 58C451.058 69.6 448.858 82.2667 447.125 96C455.392 86.2667 462.192 75.6667 467.525 64.2C472.992 52.7333 475.725 42.3333 475.725 33C475.725 28.7333 475.258 25.4667 474.325 23.2C473.392 20.9333 472.058 19.8 470.325 19.8Z" stroke="black" stroke-width="5" mask="url(#path-1-inside-1)"/>
    <path d="M574.403 189C566.137 189 559.537 186 554.603 180C549.67 174 547.203 166.133 547.203 156.4C547.203 145.733 549.67 135.667 554.603 126.2C559.537 116.6 566.07 108.933 574.203 103.2C582.47 97.3333 591.203 94.4 600.403 94.4C603.337 94.4 605.27 95 606.203 96.2C607.27 97.2667 608.136 99.2667 608.803 102.2C611.603 101.667 614.537 101.4 617.603 101.4C624.137 101.4 627.403 103.733 627.403 108.4C627.403 111.2 626.403 117.867 624.403 128.4C621.337 143.733 619.803 154.4 619.803 160.4C619.803 162.4 620.27 164 621.203 165.2C622.27 166.4 623.603 167 625.203 167C627.737 167 630.803 165.4 634.403 162.2C638.003 158.867 642.87 153.533 649.003 146.2C650.603 144.333 652.403 143.4 654.403 143.4C656.137 143.4 657.47 144.2 658.403 145.8C659.47 147.4 660.003 149.6 660.003 152.4C660.003 157.733 658.737 161.867 656.203 164.8C650.737 171.6 644.936 177.333 638.803 182C632.67 186.667 626.737 189 621.003 189C616.603 189 612.536 187.533 608.803 184.6C605.203 181.533 602.47 177.4 600.603 172.2C593.67 183.4 584.937 189 574.403 189ZM581.603 168.8C584.537 168.8 587.337 167.067 590.003 163.6C592.67 160.133 594.603 155.533 595.803 149.8L603.203 113C597.603 113.133 592.403 115.267 587.603 119.4C582.937 123.4 579.203 128.733 576.403 135.4C573.603 142.067 572.203 149.133 572.203 156.6C572.203 160.733 573.003 163.8 574.603 165.8C576.337 167.8 578.67 168.8 581.603 168.8Z" stroke="black" stroke-width="5" mask="url(#path-1-inside-1)"/>
    <path d="M739.749 94.8C742.815 94.8 744.949 95.2 746.148 96C747.348 96.8 747.948 98.1333 747.948 100C747.948 103.2 746.215 114.6 742.748 134.2C739.682 153 737.882 164.133 737.349 167.6C732.415 201.867 725.615 229 716.948 249C708.282 269 696.749 279 682.349 279C675.549 279 670.015 276.867 665.748 272.6C661.482 268.467 659.349 263 659.349 256.2C659.349 249.933 660.749 243.533 663.549 237C666.482 230.467 671.815 222.933 679.549 214.4C687.415 206 698.482 196.333 712.748 185.4L713.349 180.8C714.282 175.867 715.349 168.8 716.549 159.6C713.882 169.2 710.149 176.533 705.349 181.6C700.549 186.533 695.482 189 690.148 189C684.148 189 679.215 186.267 675.349 180.8C671.615 175.2 669.748 168.267 669.748 160C669.748 150 670.415 140.867 671.748 132.6C673.082 124.2 675.282 115.333 678.349 106C679.682 102 681.548 99.1333 683.948 97.4C686.348 95.6667 690.149 94.8 695.349 94.8C698.282 94.8 700.282 95.2667 701.349 96.2C702.549 97.1333 703.148 98.5333 703.148 100.4C703.148 101.467 702.415 105.067 700.948 111.2C699.615 116.133 698.548 120.6 697.748 124.6C696.682 130.067 695.748 135.333 694.948 140.4C694.148 145.333 693.748 149.4 693.748 152.6C693.748 157.667 695.148 160.2 697.948 160.2C699.948 160.2 702.415 158.2 705.349 154.2C708.415 150.2 711.615 144.133 714.948 136C718.415 127.867 721.748 117.867 724.948 106C726.015 102 727.615 99.1333 729.748 97.4C732.015 95.6667 735.349 94.8 739.749 94.8ZM684.549 259.6C687.882 259.6 691.615 255.733 695.748 248C699.882 240.267 704.015 227.4 708.148 209.4C697.882 218.067 690.415 225.933 685.748 233C681.215 240.2 678.948 246.467 678.948 251.8C678.948 254.067 679.348 255.933 680.148 257.4C681.082 258.867 682.549 259.6 684.549 259.6Z" stroke="black" stroke-width="5" mask="url(#path-1-inside-1)"/>
  </svg> 