<svg id="logod" viewBox="0 0 442 61" fill="none" xmlns="http://www.w3.org/2000/svg">
    <g style="mix-blend-mode:darken">
    <path d="M1.616 4H3.992C9.656 4 14.072 5.512 17.24 8.536C20.408 11.512 21.992 15.52 21.992 20.56C21.992 24.064 21.224 27.184 19.688 29.92C18.152 32.608 16.064 34.696 13.424 36.184C10.784 37.624 7.832 38.344 4.568 38.344H3.992V58H1.616V4ZM4.712 36.256C9.08 36.256 12.656 34.912 15.44 32.224C18.224 29.488 19.616 25.648 19.616 20.704C19.616 16 18.296 12.4 15.656 9.904C13.064 7.36 9.368 6.088 4.568 6.088H3.992V36.256H4.712Z" stroke="black" stroke-width="2"/>
    <path d="M26.2749 4H28.6509V35.32H65.6589V4H68.0349V58H65.6589V37.408H28.6509V58H26.2749V4Z" stroke="black" stroke-width="2"/>
    <path d="M101.247 59.44C96.2071 59.44 91.5271 58.12 87.2071 55.48C82.8871 52.84 79.4551 49.336 76.9111 44.968C74.4151 40.552 73.1671 35.824 73.1671 30.784C73.1671 25.792 74.4391 21.136 76.9831 16.816C79.5271 12.448 82.9591 8.992 87.2791 6.448C91.5991 3.856 96.2791 2.56 101.319 2.56C106.407 2.56 111.087 3.832 115.359 6.376C119.631 8.92 123.015 12.376 125.511 16.744C128.055 21.064 129.327 25.744 129.327 30.784C129.327 35.968 128.055 40.768 125.511 45.184C123.015 49.552 119.607 53.032 115.287 55.624C111.015 58.168 106.335 59.44 101.247 59.44ZM101.247 57.352C105.855 57.352 110.127 56.176 114.063 53.824C117.999 51.424 121.119 48.208 123.423 44.176C125.775 40.096 126.951 35.68 126.951 30.928C126.951 26.224 125.799 21.856 123.495 17.824C121.191 13.792 118.071 10.6 114.135 8.248C110.199 5.848 105.927 4.648 101.319 4.648C96.6631 4.648 92.3671 5.848 88.4311 8.248C84.4951 10.6 81.3511 13.792 78.9991 17.824C76.6951 21.856 75.5431 26.224 75.5431 30.928C75.5431 35.68 76.6951 40.096 78.9991 44.176C81.3511 48.208 84.4951 51.424 88.4311 53.824C92.3671 56.176 96.6391 57.352 101.247 57.352Z" stroke="black" stroke-width="2"/>
    <path d="M137.658 6.088H125.202V4H152.346V6.088H140.034V58H137.658V6.088Z" stroke="black" stroke-width="2"/>
    <path d="M177.069 59.44C172.029 59.44 167.349 58.12 163.029 55.48C158.709 52.84 155.277 49.336 152.733 44.968C150.237 40.552 148.989 35.824 148.989 30.784C148.989 25.792 150.261 21.136 152.805 16.816C155.349 12.448 158.781 8.992 163.101 6.448C167.421 3.856 172.101 2.56 177.141 2.56C182.229 2.56 186.909 3.832 191.181 6.376C195.453 8.92 198.837 12.376 201.333 16.744C203.877 21.064 205.149 25.744 205.149 30.784C205.149 35.968 203.877 40.768 201.333 45.184C198.837 49.552 195.429 53.032 191.109 55.624C186.837 58.168 182.157 59.44 177.069 59.44ZM177.069 57.352C181.677 57.352 185.949 56.176 189.885 53.824C193.821 51.424 196.941 48.208 199.245 44.176C201.597 40.096 202.773 35.68 202.773 30.928C202.773 26.224 201.621 21.856 199.317 17.824C197.013 13.792 193.893 10.6 189.957 8.248C186.021 5.848 181.749 4.648 177.141 4.648C172.485 4.648 168.189 5.848 164.253 8.248C160.317 10.6 157.173 13.792 154.821 17.824C152.517 21.856 151.365 26.224 151.365 30.928C151.365 35.68 152.517 40.096 154.821 44.176C157.173 48.208 160.317 51.424 164.253 53.824C168.189 56.176 172.461 57.352 177.069 57.352Z" stroke="black" stroke-width="2"/>
    <path d="M236.039 4.648C231.287 4.648 226.943 5.872 223.007 8.32C219.119 10.72 216.023 13.96 213.719 18.04C211.463 22.072 210.335 26.416 210.335 31.072C210.335 35.776 211.487 40.144 213.791 44.176C216.095 48.208 219.143 51.424 222.935 53.824C226.775 56.176 230.903 57.352 235.319 57.352C237.911 57.352 240.215 57.112 242.231 56.632C244.295 56.152 246.263 55.384 248.135 54.328V37.408H230.279V35.32H250.511V52.816L250.655 52.744V55.408C248.351 56.8 245.975 57.808 243.527 58.432C241.127 59.104 238.487 59.44 235.607 59.44C230.567 59.44 225.935 58.216 221.711 55.768C217.487 53.272 214.127 49.864 211.631 45.544C209.183 41.176 207.959 36.28 207.959 30.856C207.959 25.624 209.231 20.848 211.775 16.528C214.367 12.208 217.799 8.8 222.071 6.304C226.391 3.808 230.975 2.56 235.823 2.56C239.183 2.56 241.847 2.872 243.815 3.496C245.783 4.072 248.063 5.104 250.655 6.592V9.256C248.207 7.576 245.927 6.4 243.815 5.728C241.751 5.008 239.159 4.648 236.039 4.648Z" stroke="black" stroke-width="2"/>
    <path d="M256.436 4H259.532C265.148 4 269.468 5.488 272.492 8.464C275.564 11.44 277.1 15.688 277.1 21.208C277.1 24.376 276.332 27.28 274.796 29.92C273.308 32.56 271.268 34.648 268.676 36.184C266.084 37.672 263.228 38.416 260.108 38.416H259.604L278.18 58H275.084L258.74 40.864V58H256.436V4ZM260.036 36.328C262.772 36.328 265.268 35.656 267.524 34.312C269.78 32.968 271.556 31.168 272.852 28.912C274.148 26.608 274.796 24.064 274.796 21.28C274.796 16.432 273.476 12.688 270.836 10.048C268.244 7.408 264.524 6.088 259.676 6.088H258.74V36.328H260.036Z" stroke="black" stroke-width="2"/>
    <path d="M332.762 58H330.242L320.018 37.408H291.362L281.354 58H278.834L305.762 2.704L332.762 58ZM319.154 35.32L305.618 7.888L292.37 35.32H319.154Z" stroke="black" stroke-width="2"/>
    <path d="M336.756 4H339.132C344.796 4 349.212 5.512 352.38 8.536C355.548 11.512 357.132 15.52 357.132 20.56C357.132 24.064 356.364 27.184 354.828 29.92C353.292 32.608 351.204 34.696 348.564 36.184C345.924 37.624 342.972 38.344 339.708 38.344H339.132V58H336.756V4ZM339.852 36.256C344.22 36.256 347.796 34.912 350.58 32.224C353.364 29.488 354.756 25.648 354.756 20.704C354.756 16 353.436 12.4 350.796 9.904C348.204 7.36 344.508 6.088 339.708 6.088H339.132V36.256H339.852Z" stroke="black" stroke-width="2"/>
    <path d="M361.415 4H363.791V35.32H400.799V4H403.175V58H400.799V37.408H363.791V58H361.415V4Z" stroke="black" stroke-width="2"/>
    <path d="M439.771 4L423.715 36.4V58H421.339V36.4L404.923 4H407.515L422.563 33.592L437.323 4H439.771Z" stroke="black" stroke-width="2"/>
    </g>
    </svg>